<?xml version="1.0" encoding="UTF-8" standalone="no"?> <svg width="64" height="64" viewBox="0 0 64 64" fill="none" xmlns="http://www.w3.org/2000/svg">
<path d="M16 30H5C4.73478 30 4.48043 30.1054 4.29289 30.2929C4.10536 30.4804 4 30.7348 4 31V44.8C4.0922 46.4616 4.81721 48.0247 6.02608 49.1684C7.23494 50.312 8.83588 50.9493 10.5 50.9493C12.1641 50.9493 13.7651 50.312 14.9739 49.1684C16.1828 48.0247 16.9078 46.4616 17 44.8V44.8V31C17.0008 30.8684 16.9755 30.7379 16.9258 30.6161C16.876 30.4943 16.8027 30.3835 16.71 30.29C16.6166 30.1973 16.5057 30.124 16.3839 30.0742C16.2621 30.0245 16.1316 29.9993 16 30Z" fill="#D1D3D4"/>
<path d="M21.48 3C19.7596 3.00529 18.1114 3.69245 16.8967 4.91086C15.6821 6.12928 15 7.77955 15 9.5V9.5V44.84C14.9973 46.0344 14.521 47.179 13.6755 48.0226C12.83 48.8662 11.6844 49.34 10.49 49.34C10.2248 49.34 9.97042 49.4454 9.78288 49.6329C9.59535 49.8204 9.48999 50.0748 9.48999 50.34C9.48999 50.6052 9.59535 50.8596 9.78288 51.0471C9.97042 51.2346 10.2248 51.34 10.49 51.34H27C27.2652 51.34 27.5196 51.2346 27.7071 51.0471C27.8946 50.8596 28 50.6052 28 50.34V9.5C27.9947 7.77426 27.3054 6.121 26.0833 4.90259C24.8611 3.68417 23.2057 2.99999 21.48 3V3Z" fill="#B1B3B6"/>
<path d="M53.53 3H21.53C21.2648 3 21.0105 3.10536 20.8229 3.29289C20.6354 3.48043 20.53 3.73478 20.53 4C20.53 4.26522 20.6354 4.51957 20.8229 4.70711C21.0105 4.89464 21.2648 5 21.53 5C22.7167 5.01312 23.8505 5.49238 24.6869 6.33431C25.5232 7.17624 25.9949 8.3133 26 9.5V56.16C26 56.16 26 56.21 26 56.23C25.9952 56.3099 25.9952 56.3901 26 56.47L26.07 56.63C26.07 56.63 26.07 56.69 26.07 56.72L28.74 60.57C28.8319 60.7025 28.9545 60.8107 29.0973 60.8856C29.24 60.9605 29.3988 60.9997 29.56 61C29.7212 60.9997 29.88 60.9605 30.0228 60.8856C30.1656 60.8107 30.2881 60.7025 30.38 60.57L32.23 57.91L34.08 60.57C34.181 60.7173 34.3196 60.8349 34.4814 60.9105C34.6432 60.9861 34.8223 61.017 35 61C35.1612 60.9997 35.32 60.9605 35.4628 60.8856C35.6056 60.8107 35.7281 60.7025 35.82 60.57L37.67 57.91L39.52 60.57C39.6119 60.7025 39.7345 60.8107 39.8773 60.8856C40.02 60.9605 40.1788 60.9997 40.34 61C40.5012 60.9997 40.66 60.9605 40.8028 60.8856C40.9456 60.8107 41.0681 60.7025 41.16 60.57L43 57.91L44.84 60.57C44.9319 60.7041 45.055 60.8137 45.1987 60.8895C45.3425 60.9653 45.5025 61.0049 45.665 61.0049C45.8275 61.0049 45.9876 60.9653 46.1313 60.8895C46.2751 60.8137 46.3982 60.7041 46.49 60.57L48.34 57.91L50.19 60.57C50.2822 60.702 50.4049 60.8099 50.5476 60.8843C50.6904 60.9588 50.849 60.9976 51.01 60.9976C51.171 60.9976 51.3297 60.9588 51.4724 60.8843C51.6152 60.8099 51.7379 60.702 51.83 60.57L53.68 57.91L55.53 60.57C55.6219 60.7025 55.7445 60.8107 55.8873 60.8856C56.03 60.9605 56.1888 60.9997 56.35 61C56.5112 60.9997 56.67 60.9605 56.8128 60.8856C56.9556 60.8107 57.0781 60.7025 57.17 60.57L59.85 56.73C59.85 56.73 59.85 56.66 59.85 56.64C59.8827 56.5794 59.9095 56.5157 59.93 56.45C59.9357 56.3835 59.9357 56.3165 59.93 56.25C59.93 56.25 59.93 56.19 59.93 56.16V9.5C59.9277 7.79406 59.2557 6.15722 58.0588 4.94163C56.862 3.72603 55.2357 3.02882 53.53 3V3Z" fill="#D1D3D4"/>
<path d="M43 8.51001C40.8585 8.51199 38.7656 9.14884 36.9859 10.3401C35.2062 11.5313 33.8197 13.2234 33.0015 15.2025C32.1834 17.1816 31.9703 19.3588 32.3893 21.459C32.8083 23.5591 33.8406 25.4879 35.3556 27.0015C36.8706 28.5151 38.8003 29.5456 40.9008 29.9626C43.0014 30.3797 45.1784 30.1647 47.1568 29.3447C49.1351 28.5247 50.8259 27.1366 52.0155 25.3558C53.2051 23.575 53.84 21.4816 53.84 19.34C53.8373 16.4668 52.6941 13.7122 50.6615 11.6814C48.6289 9.6507 45.8732 8.51001 43 8.51001V8.51001Z" fill="#FFC20E"/>
<path d="M43.84 18.34H42.19C42.0456 18.344 41.9017 18.3194 41.7667 18.2678C41.6317 18.2162 41.5082 18.1385 41.4033 18.0391C41.2984 17.9398 41.214 17.8207 41.1551 17.6887C41.0962 17.5567 41.0639 17.4144 41.06 17.27C41.0577 17.1295 41.085 16.9901 41.1401 16.8609C41.1952 16.7316 41.277 16.6155 41.38 16.52C41.6004 16.3156 41.8895 16.2014 42.19 16.2H45.32C45.5852 16.2 45.8396 16.0946 46.0271 15.9071C46.2147 15.7195 46.32 15.4652 46.32 15.2C46.32 14.9347 46.2147 14.6804 46.0271 14.4929C45.8396 14.3053 45.5852 14.2 45.32 14.2H44V12.84C44 12.5747 43.8947 12.3204 43.7071 12.1329C43.5196 11.9453 43.2652 11.84 43 11.84C42.7348 11.84 42.4804 11.9453 42.2929 12.1329C42.1054 12.3204 42 12.5747 42 12.84V14.22C41.2502 14.259 40.5398 14.568 40 15.09C39.7051 15.3711 39.4705 15.7094 39.3106 16.0842C39.1507 16.459 39.0689 16.8625 39.07 17.27C39.0739 17.6771 39.158 18.0794 39.3174 18.454C39.4769 18.8286 39.7085 19.1682 39.9992 19.4533C40.2898 19.7383 40.6338 19.9634 41.0114 20.1155C41.389 20.2677 41.7929 20.3439 42.2 20.34H43.85C43.9958 20.3346 44.1412 20.3581 44.2779 20.409C44.4147 20.4598 44.54 20.5372 44.6468 20.6366C44.7536 20.736 44.8398 20.8554 44.9004 20.9881C44.961 21.1208 44.9949 21.2642 45 21.41C45.001 21.5488 44.973 21.6862 44.9179 21.8136C44.8628 21.941 44.7818 22.0556 44.68 22.15C44.4593 22.3602 44.1648 22.4752 43.86 22.47H40.71C40.4448 22.47 40.1904 22.5753 40.0029 22.7629C39.8154 22.9504 39.71 23.2047 39.71 23.47C39.71 23.7352 39.8154 23.9895 40.0029 24.1771C40.1904 24.3646 40.4448 24.47 40.71 24.47H42V25.84C42 26.1052 42.1054 26.3595 42.2929 26.5471C42.4804 26.7346 42.7348 26.84 43 26.84C43.2652 26.84 43.5196 26.7346 43.7071 26.5471C43.8947 26.3595 44 26.1052 44 25.84V24.46C44.748 24.4131 45.4558 24.1052 46 23.59C46.3049 23.3127 46.5507 22.9766 46.7225 22.602C46.8943 22.2274 46.9887 21.822 47 21.41C46.9948 21.0007 46.9089 20.5965 46.7471 20.2205C46.5853 19.8445 46.351 19.5041 46.0574 19.2189C45.7638 18.9337 45.4168 18.7093 45.0363 18.5584C44.6558 18.4076 44.2493 18.3334 43.84 18.34V18.34Z" fill="#466089"/>
<path d="M32 36.9301H42C42.2652 36.9301 42.5196 36.8247 42.7071 36.6372C42.8946 36.4496 43 36.1953 43 35.9301C43 35.6648 42.8946 35.4105 42.7071 35.2229C42.5196 35.0354 42.2652 34.9301 42 34.9301H32C31.7348 34.9301 31.4804 35.0354 31.2929 35.2229C31.1054 35.4105 31 35.6648 31 35.9301C31 36.1953 31.1054 36.4496 31.2929 36.6372C31.4804 36.8247 31.7348 36.9301 32 36.9301Z" fill="#466089"/>
<path d="M32 41.7H52C52.2652 41.7 52.5196 41.5946 52.7071 41.4071C52.8946 41.2195 53 40.9652 53 40.7C53 40.4347 52.8946 40.1804 52.7071 39.9928C52.5196 39.8053 52.2652 39.7 52 39.7H32C31.7348 39.7 31.4804 39.8053 31.2929 39.9928C31.1054 40.1804 31 40.4347 31 40.7C31 40.9652 31.1054 41.2195 31.2929 41.4071C31.4804 41.5946 31.7348 41.7 32 41.7Z" fill="#466089"/>
<path d="M52 44.46H32C31.7348 44.46 31.4804 44.5653 31.2929 44.7529C31.1054 44.9404 31 45.1947 31 45.46C31 45.7252 31.1054 45.9795 31.2929 46.1671C31.4804 46.3546 31.7348 46.46 32 46.46H52C52.2652 46.46 52.5196 46.3546 52.7071 46.1671C52.8946 45.9795 53 45.7252 53 45.46C53 45.1947 52.8946 44.9404 52.7071 44.7529C52.5196 44.5653 52.2652 44.46 52 44.46Z" fill="#466089"/>
<path d="M52 49.22H32C31.7348 49.22 31.4804 49.3253 31.2929 49.5129C31.1054 49.7004 31 49.9548 31 50.22C31 50.4852 31.1054 50.7395 31.2929 50.9271C31.4804 51.1146 31.7348 51.22 32 51.22H52C52.2652 51.22 52.5196 51.1146 52.7071 50.9271C52.8946 50.7395 53 50.4852 53 50.22C53 49.9548 52.8946 49.7004 52.7071 49.5129C52.5196 49.3253 52.2652 49.22 52 49.22Z" fill="#466089"/>
</svg>
